# xmcd CD database file
#
# Track frame offsets:
#	150
#	25060
#	53690
#	74197
#	105990
#	132492
#	164562
#	175755
#	202582
#	227535
#	251385
#	272435
#
# Disc length: 4034 seconds
#
# Revision: 1
# Processed by: cddbd v1.5.2PL0 Copyright (c) Steve Scherf et al.
# Submitted via: CDex 1.70beta2
#
DISCID=990fc00c
DTITLE=Alain Jean-Marie et André Condouant - friends meeting
DYEAR=1900
DGENRE=Jazz
TTITLE0=short play
TTITLE1=groovin up
TTITLE2=bongo bop
TTITLE3=island song
TTITLE4=skylark
TTITLE5=hubb's bag
TTITLE6=al's groove
TTITLE7=kako
TTITLE8=cosmaunaute
TTITLE9=bubble gum
TTITLE10=jeanine
TTITLE11=tranes mirror
EXTD=
EXTT0=
EXTT1=
EXTT2=
EXTT3=
EXTT4=
EXTT5=
EXTT6=
EXTT7=
EXTT8=
EXTT9=
EXTT10=
EXTT11=
PLAYORDER=
